<svg width="335" height="98" viewBox="0 0 335 98" fill="none" xmlns="http://www.w3.org/2000/svg">
<path d="M0.785156 6.80078C3.97656 7.55664 6.83203 8.14453 9.35156 8.56445C11.9551 8.90039 14.1387 9.15234 15.9023 9.32031C18.002 9.57227 19.8496 9.65625 21.4453 9.57227C23.4609 9.48828 25.9805 9.19434 29.0039 8.69043C32.0273 8.18652 35.2188 7.68262 38.5781 7.17871C41.9375 6.6748 45.2549 6.25488 48.5303 5.91895C51.8057 5.58301 54.6611 5.54102 57.0967 5.79297C59.5322 6.04492 62.0938 6.63281 64.7812 7.55664C67.4688 8.39648 69.9883 9.57227 72.3398 11.084C74.6914 12.5117 76.707 14.2754 78.3867 16.375C80.1504 18.4746 81.2422 20.9102 81.6621 23.6816C82.082 26.3691 81.8301 29.2666 80.9062 32.374C79.9824 35.3975 78.5127 38.3789 76.4971 41.3184C74.4814 44.1738 71.9619 46.8193 68.9385 49.2549C65.915 51.6904 62.5557 53.6641 58.8604 55.1758C55.9209 56.2676 52.7295 57.1074 49.2861 57.6953C46.3467 58.1992 42.9033 58.5352 38.9561 58.7031C35.0928 58.7871 30.9775 58.3672 26.6104 57.4434C26.0225 59.8789 25.6865 62.1465 25.6025 64.2461C25.6025 66.2617 25.6865 68.0674 25.8545 69.6631C26.1064 71.5107 26.4424 73.1904 26.8623 74.7021C27.3662 76.2139 27.9961 77.9775 28.752 79.9932C29.4238 81.6729 30.1797 83.7305 31.0195 86.166C31.9434 88.5176 33.0352 91.1631 34.2949 94.1025C32.7832 94.1025 31.3135 94.1445 29.8857 94.2285C28.458 94.2285 27.1562 94.2705 25.9805 94.3545C24.6367 94.4385 23.377 94.5225 22.2012 94.6064C20.8574 94.6904 19.3457 94.8584 17.666 95.1104C16.2383 95.2783 14.4326 95.5303 12.249 95.8662C10.1494 96.2021 7.75586 96.6221 5.06836 97.126C6.83203 94.6064 8.21777 92.2969 9.22559 90.1973C10.3174 88.0137 11.1152 86.124 11.6191 84.5283C12.207 82.6807 12.585 81.001 12.7529 79.4893C12.8369 78.2295 12.8369 76.0039 12.7529 72.8125C12.7529 69.6211 12.7109 65.9258 12.627 61.7266C12.543 57.5273 12.417 53.1182 12.249 48.499C12.0811 43.8799 11.8711 39.5547 11.6191 35.5234C11.3672 31.4082 11.0732 27.8809 10.7373 24.9414C10.4854 22.002 10.2334 20.0703 9.98145 19.1465C9.64551 18.0547 9.05762 16.8789 8.21777 15.6191C7.5459 14.5273 6.58008 13.2676 5.32031 11.8398C4.14453 10.3281 2.63281 8.64844 0.785156 6.80078ZM26.8623 31.6182C26.7783 32.458 26.7363 33.3398 26.7363 34.2637C26.7363 36.0273 26.8623 38.2949 27.1143 41.0664C27.7021 42.4941 28.416 43.6699 29.2559 44.5938C30.1797 45.5176 31.1455 46.2314 32.1533 46.7354C33.2451 47.2393 34.3369 47.5752 35.4287 47.7432C36.5205 47.9111 37.6123 47.9951 38.7041 47.9951C41.2236 47.9111 43.8691 47.3232 46.6406 46.2314C50.3359 44.6357 52.9395 42.3682 54.4512 39.4287C55.9629 36.4893 56.7607 33.4658 56.8447 30.3584C56.9287 27.251 56.3828 24.3955 55.207 21.792C54.1152 19.1885 52.7715 17.4248 51.1758 16.501C49.832 15.9131 48.1104 15.6611 46.0107 15.7451C44.1631 15.8291 41.8535 16.291 39.082 17.1309C36.3105 17.9707 32.9092 19.4824 28.8779 21.666C28.458 23.1777 28.1221 24.5215 27.8701 25.6973C27.6182 26.873 27.4082 27.9229 27.2402 28.8467C27.0723 29.8545 26.9463 30.7783 26.8623 31.6182Z" fill="white"/>
<path d="M89.3467 45.9795C89.7666 45.4756 90.0186 44.5518 90.1025 43.208C90.2705 41.7803 90.6064 40.1846 91.1104 38.4209C91.6982 36.6572 92.6641 34.8096 94.0078 32.8779C95.3516 30.9463 97.5352 29.1406 100.559 27.4609C103.498 25.7812 106.354 24.7734 109.125 24.4375C111.896 24.1016 114.542 24.2275 117.062 24.8154C119.581 25.4033 121.933 26.3271 124.116 27.5869C126.384 28.8467 128.441 30.2324 130.289 31.7441C131.549 32.752 132.557 34.2217 133.312 36.1533C134.068 38.001 134.656 40.1006 135.076 42.4521C135.496 44.8037 135.79 47.2812 135.958 49.8848C136.21 52.4043 136.378 54.8818 136.462 57.3174C136.546 59.6689 136.588 61.8525 136.588 63.8682C136.672 65.7998 136.84 67.3955 137.092 68.6553C137.428 70.5029 138.016 72.0986 138.855 73.4424C139.695 74.7021 140.619 75.7939 141.627 76.7178C142.635 77.5576 143.643 78.2295 144.65 78.7334C145.658 79.2373 146.54 79.6152 147.296 79.8672C147.8 80.1191 148.262 80.2871 148.682 80.3711C149.521 80.707 150.109 80.707 150.445 80.3711C149.941 81.5469 149.479 82.5547 149.06 83.3945C148.64 84.2344 148.304 84.9482 148.052 85.5361C147.716 86.208 147.422 86.7539 147.17 87.1738C146.918 87.6777 146.624 88.1396 146.288 88.5596C146.036 88.9795 145.7 89.4414 145.28 89.9453C144.86 90.4492 144.44 90.9951 144.021 91.583C142.929 91.1631 141.879 90.6592 140.871 90.0713C139.947 89.4834 139.107 88.9375 138.352 88.4336C137.428 87.8457 136.588 87.2578 135.832 86.6699C135.076 86.082 134.362 85.4102 133.69 84.6543C133.103 83.9824 132.473 83.2686 131.801 82.5127C131.213 81.7568 130.709 80.917 130.289 79.9932C129.785 81.085 128.567 82.6387 126.636 84.6543C124.788 86.6699 122.353 88.5176 119.329 90.1973C116.306 91.793 112.778 92.9268 108.747 93.5986C104.8 94.2705 100.433 93.8086 95.6455 92.2129C93.5459 91.541 91.5723 90.5752 89.7246 89.3154C87.877 87.9717 86.2812 86.376 84.9375 84.5283C83.6777 82.6807 82.7539 80.5811 82.166 78.2295C81.6621 75.7939 81.7041 73.1064 82.292 70.167C82.8799 67.2275 83.9297 64.75 85.4414 62.7344C86.9531 60.7188 88.7588 59.0811 90.8584 57.8213C92.958 56.5615 95.3096 55.5957 97.9131 54.9238C100.517 54.252 103.204 53.79 105.976 53.5381C108.159 53.4541 110.343 53.5801 112.526 53.916C114.374 54.252 116.306 54.8818 118.321 55.8057C120.337 56.6455 122.059 57.9473 123.486 59.7109C123.402 55.2598 123.234 51.7324 122.982 49.1289C122.814 46.4414 122.646 44.3838 122.479 42.9561C122.143 41.2764 121.849 40.1006 121.597 39.4287C121.177 38.8408 120.715 38.1689 120.211 37.4131C119.791 36.6572 119.245 35.9854 118.573 35.3975C117.901 34.7256 117.062 34.1797 116.054 33.7598C115.046 33.3398 113.87 33.1719 112.526 33.2559C111.099 33.3398 109.965 33.7178 109.125 34.3896C108.285 35.0615 107.613 35.8594 107.109 36.7832C106.689 37.623 106.438 38.5469 106.354 39.5547C106.27 40.5625 106.312 41.4443 106.479 42.2002C106.647 42.7041 106.899 43.25 107.235 43.8379C107.571 44.3418 108.033 44.8877 108.621 45.4756C109.209 46.0635 110.007 46.5674 111.015 46.9873C109.083 47.2393 107.361 47.4492 105.85 47.6172C104.338 47.7012 103.036 47.8271 101.944 47.9951C100.685 48.1631 99.5928 48.2891 98.6689 48.373C97.7451 48.457 96.6533 48.625 95.3936 48.877C94.3018 49.0449 92.958 49.2549 91.3623 49.5068C89.7666 49.7588 87.9189 50.0947 85.8193 50.5146C86.3232 49.9268 86.7852 49.3809 87.2051 48.877C87.625 48.2891 88.0029 47.7852 88.3389 47.3652C88.6748 46.8613 89.0107 46.3994 89.3467 45.9795ZM108.243 60.9707C106.731 61.0547 105.22 61.4326 103.708 62.1045C102.196 62.6924 100.853 63.5742 99.6768 64.75C98.501 65.8418 97.4932 67.1436 96.6533 68.6553C95.8975 70.083 95.5195 71.6787 95.5195 73.4424C95.5195 75.2061 95.9395 76.7598 96.7793 78.1035C97.7031 79.3633 98.8789 80.4131 100.307 81.2529C101.818 82.0928 103.414 82.5967 105.094 82.7646C106.857 82.9326 108.579 82.7646 110.259 82.2607C111.854 81.6729 113.366 80.749 114.794 79.4893C116.222 78.1455 117.439 76.7178 118.447 75.2061C119.455 73.6104 120.169 72.0566 120.589 70.5449C121.009 68.9492 121.051 67.6475 120.715 66.6396C120.043 64.4561 118.531 62.9443 116.18 62.1045C113.828 61.1807 111.183 60.8027 108.243 60.9707Z" fill="white"/>
<path d="M153.091 83.1426C153.679 80.3711 154.099 77.9355 154.351 75.8359C154.687 73.6523 154.938 71.8467 155.106 70.4189C155.274 68.7393 155.358 67.3115 155.358 66.1357C155.274 64.708 155.19 63.0283 155.106 61.0967C155.106 59.0811 155.022 57.1074 154.854 55.1758C154.771 53.1602 154.645 51.3965 154.477 49.8848C154.309 48.2891 154.099 47.1553 153.847 46.4834C153.511 45.8115 153.049 45.0977 152.461 44.3418C151.285 42.9141 149.563 41.5283 147.296 40.1846C149.228 39.7646 150.865 39.4287 152.209 39.1768C153.637 38.8408 154.812 38.5469 155.736 38.2949C156.744 37.959 157.626 37.665 158.382 37.4131C159.054 37.1611 159.852 36.9092 160.775 36.6572C161.531 36.4893 162.455 36.2793 163.547 36.0273C164.639 35.7754 165.898 35.4814 167.326 35.1455L166.948 46.6094C169.636 43.418 172.365 41.0244 175.137 39.4287C177.908 37.833 180.512 36.6992 182.947 36.0273C185.719 35.1875 188.448 34.7676 191.136 34.7676C194.495 34.9355 197.603 35.4814 200.458 36.4053C203.397 37.3291 205.917 38.4209 208.017 39.6807C210.2 40.8564 211.964 42.1162 213.308 43.46C214.651 44.8037 215.449 45.9795 215.701 46.9873C216.709 50.2627 216.961 53.2861 216.457 56.0576C215.953 58.7451 215.281 61.3906 214.441 63.9941C213.686 66.5137 213.014 69.0332 212.426 71.5527C211.922 74.0723 212.132 76.8018 213.056 79.7412C213.392 80.4971 213.728 81.2529 214.063 82.0088C214.399 82.6807 214.819 83.3525 215.323 84.0244C215.827 84.6963 216.415 85.2422 217.087 85.6621C216.163 85.5781 215.239 85.5361 214.315 85.5361C213.392 85.4521 212.552 85.3682 211.796 85.2842C210.872 85.2002 210.032 85.1162 209.276 85.0322C208.437 84.9482 207.303 84.9062 205.875 84.9062C203.439 84.9062 199.66 85.0322 194.537 85.2842C195.293 83.5205 195.881 82.0508 196.301 80.875C196.805 79.6152 197.225 78.6074 197.561 77.8516C197.896 76.9277 198.148 76.2139 198.316 75.71C199.324 73.2744 199.912 70.5029 200.08 67.3955C200.332 64.2881 200.122 61.1387 199.45 57.9473C199.198 56.8555 198.778 55.5537 198.19 54.042C197.603 52.5303 196.805 51.0605 195.797 49.6328C194.873 48.2051 193.739 46.9873 192.396 45.9795C191.136 44.9717 189.666 44.3838 187.986 44.2158C186.307 44.0479 184.417 44.4678 182.317 45.4756C180.302 46.4834 178.118 48.3311 175.767 51.0186C174.003 53.2861 172.617 56.0576 171.609 59.333C170.686 62.1045 170.056 65.5898 169.72 69.7891C169.384 73.9043 169.888 78.7334 171.231 84.2764C170.056 84.1084 168.964 84.0244 167.956 84.0244C166.948 83.9404 166.108 83.8564 165.437 83.7725C164.597 83.6885 163.841 83.6045 163.169 83.5205C162.413 83.5205 161.573 83.4785 160.649 83.3945C159.81 83.3945 158.76 83.3945 157.5 83.3945C156.24 83.3105 154.771 83.2266 153.091 83.1426Z" fill="white"/>
<path d="M223.26 17.6348C225.779 17.8867 227.879 18.0967 229.559 18.2646C231.322 18.4326 232.75 18.5586 233.842 18.6426C235.102 18.7266 236.109 18.7686 236.865 18.7686C237.621 18.8525 238.629 18.8525 239.889 18.7686C240.98 18.6846 242.408 18.6006 244.172 18.5166C245.936 18.3486 248.161 18.0967 250.849 17.7607C250.261 18.6006 249.799 19.3564 249.463 20.0283C249.127 20.6162 248.833 21.1621 248.581 21.666L247.825 23.1777C247.657 23.6816 247.489 24.1855 247.321 24.6895C247.153 25.1094 246.985 25.6133 246.817 26.2012C246.733 26.7891 246.649 27.4189 246.565 28.0908H265.966L264.202 38.2949L246.439 37.2871C246.02 41.5703 245.726 44.8877 245.558 47.2393C245.39 49.5908 245.222 51.3125 245.054 52.4043L244.802 54.6719C244.55 57.8633 244.298 61.3486 244.046 65.1279C243.794 68.8232 243.71 72.2666 243.794 75.458C243.878 78.6494 244.172 81.3369 244.676 83.5205C245.18 85.6201 246.062 86.6699 247.321 86.6699C248.581 86.6699 249.757 86.334 250.849 85.6621C251.94 84.9902 252.864 84.1924 253.62 83.2686C254.46 82.3447 255.09 81.4209 255.51 80.4971C255.93 79.4893 256.14 78.7334 256.14 78.2295C256.14 77.7256 256.014 77.1377 255.762 76.4658C255.342 75.2061 254.586 73.6104 253.494 71.6787C255.93 72.2666 258.071 72.8545 259.919 73.4424C260.843 73.7783 261.683 74.1143 262.438 74.4502C263.278 74.7861 264.244 75.1641 265.336 75.584C266.26 76.0039 267.436 76.5078 268.863 77.0957C270.291 77.6836 271.971 78.3975 273.902 79.2373C272.055 79.5732 270.711 80.1191 269.871 80.875C269.367 81.2109 268.989 81.5889 268.737 82.0088C268.149 82.9326 267.478 84.1924 266.722 85.7881C265.966 87.2998 264.832 88.8115 263.32 90.3232C261.809 91.835 259.751 93.1787 257.147 94.3545C254.628 95.5303 251.227 96.2021 246.943 96.3701C242.492 96.5381 239.091 95.7822 236.739 94.1025C234.472 92.4229 232.792 90.4912 231.7 88.3076C230.692 86.04 230.104 83.8145 229.937 81.6309C229.769 79.4473 229.643 77.9775 229.559 77.2217C229.475 76.4658 229.475 74.5762 229.559 71.5527C229.643 68.5293 229.769 65.2119 229.937 61.6006C230.104 57.9053 230.272 54.3779 230.44 51.0186C230.608 47.5752 230.692 45.0557 230.692 43.46C230.692 42.6201 230.734 41.7383 230.818 40.8145C230.818 40.0586 230.818 39.2607 230.818 38.4209C230.902 37.4971 230.944 36.6152 230.944 35.7754L212.678 35.6494L211.922 28.4688L230.314 28.9727C230.146 28.0488 229.937 27.209 229.685 26.4531C229.517 25.6133 229.349 24.9414 229.181 24.4375C228.929 23.8496 228.677 23.3457 228.425 22.9258C228.089 22.5059 227.711 22.0439 227.291 21.54C226.871 21.1201 226.325 20.5742 225.653 19.9023C224.981 19.2305 224.184 18.4746 223.26 17.6348Z" fill="white"/>
<path d="M268.107 1.50977C270.039 1.8457 271.803 2.09766 273.398 2.26562C274.994 2.34961 276.338 2.43359 277.43 2.51758C278.689 2.60156 279.781 2.64355 280.705 2.64355C281.965 2.55957 283.435 2.43359 285.114 2.26562C286.542 2.09766 288.264 1.8877 290.279 1.63574C292.379 1.38379 294.772 1.04785 297.46 0.62793C296.2 1.2998 295.15 1.97168 294.311 2.64355C293.471 3.23145 292.799 3.86133 292.295 4.5332C291.707 5.28906 291.245 6.00293 290.909 6.6748C290.489 7.7666 290.027 10.0342 289.523 13.4775C289.02 16.417 288.39 20.7842 287.634 26.5791C286.962 32.374 286.08 40.2266 284.988 50.1367C288.012 47.1133 290.867 44.8457 293.555 43.334C296.326 41.7383 298.762 40.6045 300.861 39.9326C303.297 39.1768 305.564 38.7988 307.664 38.7988C310.268 39.0508 312.913 39.8906 315.601 41.3184C318.372 42.6621 320.934 44.2578 323.285 46.1055C325.721 47.9531 327.82 49.9268 329.584 52.0264C331.432 54.126 332.733 55.9736 333.489 57.5693C333.993 58.6611 334.245 60.0889 334.245 61.8525C334.245 63.5322 334.077 65.3799 333.741 67.3955C333.405 69.4111 332.943 71.4688 332.355 73.5684C331.768 75.668 331.18 77.6416 330.592 79.4893C330.088 81.3369 329.626 82.9746 329.206 84.4023C328.786 85.7461 328.534 86.7119 328.45 87.2998C328.282 88.5596 328.366 89.7773 328.702 90.9531C328.954 91.9609 329.458 93.0527 330.214 94.2285C330.97 95.3203 332.104 96.2441 333.615 97C332.439 96.832 331.18 96.7061 329.836 96.6221C328.576 96.4541 327.358 96.3281 326.183 96.2441C324.839 96.1602 323.495 96.1182 322.151 96.1182H317.616C316.188 96.1182 314.551 96.1602 312.703 96.2441C310.855 96.2441 308.84 96.2861 306.656 96.3701C307.832 95.9502 308.84 95.4043 309.68 94.7324C310.52 93.9766 311.233 93.2627 311.821 92.5908C312.493 91.835 313.081 91.0371 313.585 90.1973C313.921 89.5254 314.341 88.2656 314.845 86.418C315.349 84.4863 315.811 82.3027 316.23 79.8672C316.65 77.3477 316.944 74.7021 317.112 71.9307C317.364 69.1592 317.406 66.5137 317.238 63.9941C317.154 61.3906 316.776 59.0811 316.104 57.0654C315.517 55.0498 314.593 53.5801 313.333 52.6562C309.554 49.8008 306.11 48.415 303.003 48.499C299.979 48.499 297.082 49.7168 294.311 52.1523C293.303 53.0762 292.337 54 291.413 54.9238C290.573 55.7637 289.649 56.7715 288.642 57.9473C287.634 59.0391 286.71 60.1729 285.87 61.3486C285.87 62.6084 285.912 63.9941 285.996 65.5059C286.08 67.0176 286.164 68.4873 286.248 69.915C286.332 71.5107 286.458 73.1064 286.626 74.7021C286.794 77.1377 287.046 79.5312 287.382 81.8828C287.634 83.8984 287.97 86.124 288.39 88.5596C288.81 90.9111 289.355 93.0527 290.027 94.9844C288.936 94.8164 287.802 94.7744 286.626 94.8584C285.45 94.8584 284.316 94.8584 283.225 94.8584C281.965 94.9424 280.747 94.9844 279.571 94.9844C278.479 95.0684 277.346 95.1943 276.17 95.3623C275.162 95.5303 274.07 95.6982 272.895 95.8662C271.719 95.9502 270.585 96.1182 269.493 96.3701C270.501 94.4385 271.341 92.5488 272.013 90.7012C272.685 88.7695 273.23 87.0898 273.65 85.6621C274.154 83.9824 274.574 82.3447 274.91 80.749C275.162 79.4893 275.33 77.0957 275.414 73.5684C275.582 69.957 275.708 65.8418 275.792 61.2227C275.876 56.5195 275.918 51.5645 275.918 46.3574C275.918 41.1504 275.876 36.1953 275.792 31.4922C275.708 26.7891 275.54 22.6738 275.288 19.1465C275.12 15.6191 274.91 13.1836 274.658 11.8398C274.322 10.4961 273.86 9.15234 273.272 7.80859C272.769 6.63281 272.097 5.49902 271.257 4.40723C270.417 3.23145 269.367 2.26562 268.107 1.50977Z" fill="white"/>
</svg>
